<?xml version="1.0" encoding="utf-8"?>
<!-- Generator: Adobe Illustrator 22.0.0, SVG Export Plug-In . SVG Version: 6.00 Build 0)  -->
<svg version="1.1" id="Livello_1" xmlns="http://www.w3.org/2000/svg" xmlns:xlink="http://www.w3.org/1999/xlink" x="0px" y="0px"
	 viewBox="0 0 277.1 139.9" style="enable-background:new 0 0 277.1 139.9;" xml:space="preserve">
<style type="text/css">
	.st0{fill:#C3AA84;}
	.st1{font-family:'MyriadPro-Regular';}
	.st2{font-size:21px;}
	.st3{font-size:60px;}
	.st4{letter-spacing:-1;}
	.st5{fill:#777777;}
</style>
<title>Senza titolo-2</title>
<polygon class="st0" points="125.7,80.7 0,79.3 125.7,77.9 "/>
<polygon class="st0" points="151.4,77.9 277.1,79.3 151.4,80.7 "/>
<path class="st0" d="M160.1,118.8c-0.3-1.9-1-3.7-1.9-5.4c-2.6-4.5-10-9.4-16.1-7l0.4,1c4.7-1.8,10.3,1.2,13.4,4.6
	c-0.7,3.2-3.5,4.7-5.2,7.2c-0.4,0.5-1.2,3.8-1.4,3.9c7-2.8,7.1-8.6,6.8-10.8c0.4,0.5,0.8,1.1,1.2,1.7c0.7,1.3,1.3,2.6,1.6,4.1
	c-0.2,1.2-0.5,2.4-0.8,3.6c-1.1,3.5-4,6-5,9.7c-0.7,2.7-1.5,6.8,1.3,8.6C160.6,134.8,162.9,126.3,160.1,118.8z"/>
<path class="st0" d="M118.9,113.4c-0.9,1.7-1.6,3.5-1.9,5.4c-2.7,7.6-0.4,16,5.8,21.1c2.8-1.8,2-6,1.3-8.6c-1-3.6-3.9-6.1-5-9.7
	c-0.4-1.2-0.7-2.4-0.9-3.6c0.3-1.4,0.9-2.8,1.6-4.1c0.3-0.6,0.7-1.2,1.2-1.7c-0.3,2.2-0.2,8,6.8,10.8c-0.2-0.1-1-3.3-1.4-3.9
	c-1.7-2.6-4.5-4.1-5.2-7.2c3.1-3.4,8.7-6.4,13.4-4.6l0.4-1C128.9,104,121.5,108.9,118.9,113.4z"/>
<path class="st0" d="M139.2,107.6c1.1-6.1,3-17.3,3-18.8c0-0.9-0.3-1.8-1-2.5c3.7-1.5,5.6-5.7,4.1-9.4c-1.5-3.7-5.7-5.6-9.4-4.1
	c-3.7,1.5-5.6,5.7-4.1,9.4c0.7,1.9,2.2,3.4,4.1,4.1c-0.7,0.7-1,1.6-1,2.5c0,1.5,1.9,12.7,3,18.8c-1.9,1.8-6.9,7.4-6.9,14
	c0,8.1,7.6,14.6,7.6,14.6s7.6-6.5,7.6-14.6C146.1,115,141.1,109.4,139.2,107.6z M138.6,131.6c-2-2.4-4.4-6.2-4.4-10.1
	c0-4.1,2.5-7.8,4.4-10c1.9,2.2,4.4,6,4.4,10S140.4,129.3,138.6,131.6L138.6,131.6z"/>
<path class="st0" d="M172.5,112.6c0.9,1.2,2.2,2.1,3.7,2.5c-0.8-0.3-1.5-1-1.9-1.8c-1-2.2,1.3-3.9,1.6-6c0.5-2.1-0.2-4.2-1.7-5.6
	c0.8,0.7-1.8,4.7-2.1,5.4C171.4,108.9,171.5,110.9,172.5,112.6z"/>
<path class="st0" d="M197,114.6c-0.8-0.8-2.3-0.4-3.1,0.2c-1.1,0.8-1.9,2.6-3,3.6c-1.5,0.3-2.9-0.4-3.6-1.7c-0.6-1.3-0.4-3,0-4.7
	c0.7-2.8,0.8-5.6,0.5-8.5c1,0.4,2,0.5,3,0.3c4.7-0.8,6.5-4.9,3.8-8.9c-0.9-1.4-2.5-1.8-3.5-3c2.2,2.5,3.1,7.6-1.2,8.4
	c-1.3,0.1-2.6-0.2-3.7-0.9c1.1,0.3,2.3,0.3,3.5,0c1-0.3,1.9-1,2.3-2c0.4-1,0.4-2.2-0.2-3.2c-1.3-2.4-4.2-3-6.4-3
	c-1.1,0-2.2,0.1-3.3,0.2c-1.7,0.4-3.5,0.3-5.2-0.1c-1.4-0.5-2.8-2.1-2.4-3.5c0.2-0.9,1-1.6,2-1.7c0.9,0,1.6,0.9,2.5,1
	c0.7,0.1,1.7-0.1,1.9-0.9c0-0.1,0.1-0.2,0.1-0.3c0-0.5-0.3-0.8-0.8-1c-2.2-1-6.1,0.1-6.7,2.6c-0.1,0.2-0.1,0.5-0.1,0.7
	c0,1.1,0.5,2.1,1.4,2.9c-2.3-0.7-4.6-1.2-7-1.4c-8.8-0.9-17.5,2.4-23.5,8.8l0.8,0.8c6.3-6.5,13.9-9.3,22.5-8.5
	c3.9,0.4,7.7,1.5,11.2,3.3c0.6,0.5,1.1,1,1.7,1.5c0.4,0.4,0.8,0.9,1.2,1.3c2.8,3.4,3.9,8,2.8,12.3c-1,1.4-2,2.7-3.2,4
	c-0.4,0.4-0.8,0.8-1.1,1.2c-2.3,0.9-4.8,1-7.2,0.5c-0.9-0.6-1.8-1.4-2.5-2.3c-0.9-1.1-1.4-2.4-1.4-3.8c0.2-1.9,0.7-3.8,1.4-5.6
	c0.2-0.7,0.4-1.5,0.4-2.3c0-1.2-0.3-2.3-1-3.2c-1.1-1.5-2.7-2.5-4.5-2.8c0.5,0.8,0.8,1.6,1,2.5c0,0.2,0,0.3,0,0.5
	c0,1.8-2.2,3.5-2.7,5.1c-0.3,0.8-0.4,1.6-0.4,2.4c0,3.8,2.2,6.5,5.2,8.5c3,2.1,6.6,2.8,10.2,2l-0.2,0.3c-1.6,1.7-3.2,3.6-3.8,5.9
	c-0.5,2.2,0,4.5,1.4,6.3c0.6,0.7,1.4,1.3,2.2,1.6c0.4,0.1,0.8,0.2,1.1,0.4c-0.9-0.6-1.7-1.3-2.3-2.2c-2-3.4,2.6-6.2,4.4-8.3
	c0.9-1,1.6-2.2,2.1-3.5c0.6,12.1,11.9,9.3,11.9,9.3c-0.4-1.8-2.1-3.2-3.7-4s-3.7-0.6-5.2-1.8c-0.9-0.8-1.6-1.8-2.1-2.9
	c-0.2-0.5-0.4-1-0.6-1.5c0.6-1.7,1.1-3.4,1.4-5.2c0.8-2.8,0.9-5.8,0.1-8.6c0.3,0.4,0.8,0.8,1.2,1.1c0.5,2.9,0.4,6-0.3,8.9
	c-0.2,1-0.4,1.9-0.4,2.9c0,0.8,0.2,1.7,0.5,2.4c0.5,0.9,1.3,1.6,2.3,2c0.9,0.3,1.9,0.4,2.9,0.3c2.1-0.2,4.1-1.1,5.6-2.6
	c0.3-0.3,0.4-0.8,0.5-1.2C197.4,115.2,197.3,114.9,197,114.6z M179.8,85.9c0.2,0.1,0.3,0.2,0.3,0.4c0,0,0,0.1,0,0.1
	c-0.1,0.3-0.7,0.4-1.1,0.4c-0.4-0.1-0.9-0.3-1.2-0.5l-0.6-0.3C178,85.6,178.9,85.6,179.8,85.9L179.8,85.9z M168.3,102.7
	c-0.1,0.4-0.3,0.8-0.4,1.2c-0.7,1.6-1,3.4-1.1,5.1c0,0.3,0,0.7,0.1,1c-1-1.3-1.5-2.9-1.6-4.5c0-0.6,0.1-1.2,0.3-1.7
	c0.3-0.5,0.6-1,1-1.5c0.7-0.9,1.3-1.8,1.7-2.9c0.3,0.5,0.4,1.1,0.4,1.7C168.6,101.6,168.5,102.2,168.3,102.7z M183.2,97
	c-0.5-0.5-1-1-1.5-1.5c-0.6-0.7-1.3-1.3-2-1.8l0,0l-0.4-0.3l-0.1,0c0,0-0.2-0.1-0.6-0.3c1.2,0,2.4,0,3.6-0.2c1-0.2,2.1-0.2,3.1-0.2
	c1.9,0,4.4,0.5,5.5,2.4c0.4,0.7,0.4,1.5,0.1,2.2c-0.3,0.7-0.9,1.2-1.5,1.3C187.1,98.9,184.9,98.3,183.2,97z M196.2,116.2
	c-1,1-2.2,1.7-3.6,1.9c0.2-0.3,0.4-0.6,0.6-0.9c0.4-0.6,0.8-1.1,1.3-1.6c0.5-0.4,1.4-0.6,1.8-0.3c0.1,0.1,0.1,0.2,0.1,0.3
	C196.4,115.9,196.3,116.1,196.2,116.2L196.2,116.2z"/>
<path class="st0" d="M100.9,113.6c1.5-0.2,2.9-0.9,4-2c1.2-1.6,1.6-3.6,1.1-5.4c-0.2-0.7-2.3-5-1.4-5.6c-1.7,1.3-2.6,3.3-2.4,5.4
	c0.1,2,2.1,4.1,0.9,6.1C102.5,112.8,101.8,113.4,100.9,113.6z"/>
<path class="st0" d="M112.5,89.8c-2.4-0.1-4.8,0.1-7.1,0.5c0.9-0.6,1.5-1.6,1.7-2.7c0-0.2,0-0.5,0-0.8c-0.3-2.6-4.1-4.1-6.4-3.4
	c-0.4,0.1-0.8,0.5-0.9,0.9c0,0.1,0,0.2,0,0.3c0.1,0.8,1.1,1.1,1.8,1.1c0.9,0,1.7-0.8,2.6-0.7c0.9,0.2,1.6,1,1.8,1.9
	c0.2,1.4-1.3,2.8-2.8,3.1c-1.8,0.2-3.5,0.1-5.2-0.5c-1.1-0.3-2.1-0.5-3.2-0.6c-2.2-0.2-5.1,0-6.7,2.2c-0.7,0.9-0.9,2.1-0.6,3.1
	c0.3,1,1,1.8,2,2.2c1.1,0.4,2.3,0.5,3.4,0.4c-1.2,0.6-2.5,0.7-3.7,0.4C85,96,86.5,91,89,88.9c-1.1,1-2.8,1.3-3.8,2.5
	c-3.2,3.7-1.9,7.9,2.7,9.3c1,0.3,2,0.4,3.1,0.1c-0.7,2.8-0.9,5.6-0.6,8.4c0.2,1.7,0.2,3.4-0.6,4.6c-0.9,1.2-2.4,1.7-3.8,1.2
	c-1-1.1-1.5-3-2.5-4c-0.8-0.7-2.2-1.3-3.1-0.6c-0.3,0.2-0.5,0.6-0.6,1c0,0.4,0.1,0.9,0.3,1.2c1.3,1.7,3.1,2.9,5.2,3.3
	c1,0.3,2,0.3,3,0.1c1-0.3,1.9-0.9,2.5-1.8c0.4-0.7,0.7-1.5,0.8-2.3c0.1-1,0.1-2,0-3c-0.4-3-0.1-6,0.8-8.8c0.5-0.3,1-0.6,1.4-1
	c-1.1,2.7-1.5,5.7-1,8.5c0.1,1.8,0.3,3.6,0.8,5.3c-0.2,0.5-0.5,1-0.8,1.4c-0.6,1.1-1.4,2-2.4,2.6c-1.6,1-3.6,0.5-5.4,1.1
	s-3.5,1.8-4.1,3.5c0,0,10.8,4.2,12.9-7.7c0.4,1.3,1,2.5,1.7,3.7c1.5,2.3,5.7,5.7,3.3,8.8c-0.7,0.9-1.6,1.5-2.6,2
	c0.3-0.1,0.8-0.1,1.2-0.2c0.9-0.3,1.7-0.7,2.4-1.4c1.6-1.6,2.4-3.8,2.2-6c-0.3-2.4-1.7-4.4-3.1-6.3l-0.2-0.3
	c3.4,1.2,7.2,0.9,10.3-0.8c3.2-1.6,5.7-4.1,6.2-7.8c0.1-0.8,0.1-1.7-0.1-2.5c-0.4-1.7-2.3-3.6-2.1-5.4c0-0.2,0.1-0.3,0.1-0.5
	c0.3-0.8,0.7-1.6,1.3-2.3c-1.8,0.1-3.6,0.9-4.9,2.2c-0.8,0.9-1.2,2-1.4,3.1c-0.1,0.8-0.1,1.5,0.1,2.3c0.5,1.9,0.8,3.8,0.7,5.7
	c-0.2,1.4-0.8,2.6-1.8,3.5c-0.8,0.8-1.7,1.5-2.7,2c-2.4,0.3-4.9-0.2-7.1-1.3c-0.3-0.4-0.7-0.9-1-1.4c-1-1.4-1.9-2.9-2.7-4.4
	c-0.6-4.4,1-8.8,4.3-11.9c0.4-0.4,0.9-0.8,1.4-1.2c0.6-0.5,1.2-0.9,1.8-1.3c3.7-1.3,7.6-1.9,11.5-1.7c8.7,0.3,15.9,4.1,21.3,11.2
	l0.9-0.6C129.5,94.3,121.3,90,112.5,89.8z M102.9,84.8c-0.4,0.2-0.9,0.3-1.3,0.4c-0.4,0-1-0.2-1.1-0.5v-0.1c0-0.1,0.2-0.3,0.4-0.3
	c0.9-0.2,1.8-0.1,2.7,0.3C103.4,84.6,103.1,84.6,102.9,84.8L102.9,84.8z M80.9,112.3c-0.1-0.2-0.2-0.4-0.1-0.5
	c0-0.1,0.1-0.2,0.2-0.3c0.4-0.3,1.2,0,1.7,0.5c0.4,0.5,0.8,1.1,1.1,1.7l0.5,1C82.9,114.2,81.7,113.4,80.9,112.3L80.9,112.3z
	 M110.2,100.8c0.1-0.6,0.3-1.1,0.6-1.6c0.3,1.1,0.7,2.1,1.3,3.1c0.3,0.5,0.6,1,0.8,1.6c0.1,0.6,0.1,1.2,0.1,1.8
	c-0.2,1.6-1,3.1-2.1,4.3c0.1-0.3,0.2-0.7,0.2-1c0.1-1.8,0-3.5-0.5-5.2l-0.2-1.2C110.1,101.9,110.1,101.3,110.2,100.8L110.2,100.8z
	 M100.5,91.6L100.5,91.6l-0.5,0.3l0,0c-0.8,0.4-1.5,1-2.2,1.6c-0.5,0.5-1.1,0.9-1.7,1.3c-1.9,1.1-4.2,1.4-6.3,0.7
	c-0.7-0.3-1.2-0.8-1.4-1.5c-0.2-0.8-0.1-1.6,0.4-2.2c1.3-1.8,3.8-1.9,5.7-1.8c1,0.1,2,0.3,3,0.6c1.1,0.3,2.3,0.6,3.5,0.7L100.5,91.6
	z"/>
<text transform="matrix(1 0 0 1 22 69.22)" class="st0 st1 st2">P</text>
<text transform="matrix(1 0 0 1 32.752 69.22)" class="st0 st1 st2"> </text>
<text transform="matrix(1 0 0 1 32.84 69.22)" class="st0 st1 st2">r</text>
<text transform="matrix(1 0 0 1 39.4969 69.22)" class="st0 st1 st2"> </text>
<text transform="matrix(1 0 0 1 39.49 69.22)" class="st0 st1 st2">enditi cu</text>
<text transform="matrix(1 0 0 1 115.7188 69.22)" class="st0 st1 st2"> </text>
<text transform="matrix(1 0 0 1 115.72 69.22)" class="st0 st1 st2">r</text>
<text transform="matrix(1 0 0 1 122.5869 69.22)" class="st0 st1 st2"> </text>
<text transform="matrix(1 0 0 1 122.48 69.22)" class="st0 st1 st2">a del tuo</text>
<text transform="matrix(1 0 0 1 198.8767 69.22)" class="st0 st1 st2"> </text>
<text transform="matrix(1 0 0 1 203.33 69.22)" class="st0 st1 st2">c</text>
<text transform="matrix(1 0 0 1 212.528 69.22)" class="st0 st1 st2"> </text>
<text transform="matrix(1 0 0 1 212.61 69.22)" class="st0 st1 st2">o</text>
<text transform="matrix(1 0 0 1 224.1389 69.22)" class="st0 st1 st2"> </text>
<text transform="matrix(1 0 0 1 224.14 69.22)" class="st0 st1 st2">r</text>
<text transform="matrix(1 0 0 1 231.0069 69.22)" class="st0 st1 st2"> </text>
<text transform="matrix(1 0 0 1 231.09 69.22)" class="st0 st1 st2">po</text>
<text transform="matrix(1 0 0 1 18 50.22)" class="st0 st1 st3 st4">V</text>
<text transform="matrix(1 0 0 1 50.2799 50.22)" class="st0 st1 st3"> </text>
<text transform="matrix(1 0 0 1 50.52 50.22)" class="st0 st1 st3">illa</text>
<text transform="matrix(1 0 0 1 121.7984 50.22)" class="st0 st1 st3"> </text>
<text transform="matrix(1 0 0 1 134.52 50.22)" class="st0 st1 st3">S</text>
<text transform="matrix(1 0 0 1 164.0998 50.22)" class="st0 st1 st3"> </text>
<text transform="matrix(1 0 0 1 164.28 50.22)" class="st0 st1 st3">alus</text>
<g id="XMLID_18_">
	<path id="XMLID_22_" class="st5" d="M139.1,28.5c-23.3,0-42.2,18.9-42.2,42.2c0,23.3,18.9,42.2,42.2,42.2
		c23.3,0,42.2-18.9,42.2-42.2C181.3,47.5,162.4,28.5,139.1,28.5L139.1,28.5z M139.1,107.5c-20.3,0-36.8-16.5-36.8-36.8
		c0-20.3,16.5-36.8,36.8-36.8c20.3,0,36.8,16.5,36.8,36.8C175.9,91,159.4,107.5,139.1,107.5L139.1,107.5z M139.1,107.5"/>
	<path id="XMLID_19_" class="st5" d="M160.1,68h-18.3V49.7c0-1.5-1.2-2.7-2.7-2.7c-1.5,0-2.7,1.2-2.7,2.7V68h-18.3
		c-1.5,0-2.7,1.2-2.7,2.7c0,1.5,1.2,2.7,2.7,2.7h18.3v18.3c0,1.5,1.2,2.7,2.7,2.7c1.5,0,2.7-1.2,2.7-2.7V73.4h18.3
		c1.5,0,2.7-1.2,2.7-2.7C162.8,69.2,161.6,68,160.1,68L160.1,68z M160.1,68"/>
</g>
</svg>
