<svg id="Livello_1" data-name="Livello 1" xmlns="http://www.w3.org/2000/svg" viewBox="0 0 277.13 139.93">
    <defs>
        <style>
            .cls-1, .cls-2, .cls-8 {
            fill: #c3aa84;
            }

            .cls-2 {
            font-size: 21px;
            }

            .cls-2, .cls-8 {
            font-family: MyriadPro-Regular, Myriad Pro;
            }

            .cls-3 {
            letter-spacing: -0.02em;
            }

            .cls-4 {
            letter-spacing: -0.01em;
            }

            .cls-5 {
            letter-spacing: 0em;
            }

            .cls-6 {
            letter-spacing: -0.01em;
            }

            .cls-7 {
            letter-spacing: 0em;
            }

            .cls-8 {
            font-size: 60px;
            }

            .cls-9 {
            letter-spacing: -0.02em;
            }

            .cls-10 {
            letter-spacing: 0em;
            }
        </style>
    </defs>
    <title>Senza titolo-2</title>
    <polygon class="cls-1" points="125.71 80.65 0 79.26 125.71 77.86 125.71 80.65"/>
    <polygon class="cls-1" points="151.42 77.86 277.13 79.26 151.42 80.65 151.42 77.86"/>
    <path class="cls-1"
          d="M322.15,324.55a17.43,17.43,0,0,0-1.92-5.37c-2.59-4.55-10-9.44-16.14-7.05l.38,1c4.67-1.81,10.33,1.18,13.4,4.62-.69,3.16-3.48,4.67-5.18,7.25-.37.55-1.16,3.8-1.35,3.87,7-2.78,7.07-8.57,6.8-10.81a11.29,11.29,0,0,1,1.17,1.66,16,16,0,0,1,1.6,4.06,24.7,24.7,0,0,1-.84,3.62c-1.12,3.53-4,6-5,9.68-.71,2.66-1.47,6.82,1.28,8.63A19,19,0,0,0,322.15,324.55Z"
          transform="translate(-162 -205.78)"/>
    <path class="cls-1"
          d="M280.91,319.18a17.1,17.1,0,0,0-1.93,5.37,19,19,0,0,0,5.83,21.14c2.75-1.81,2-6,1.28-8.63-1-3.65-3.91-6.15-5-9.68a23.5,23.5,0,0,1-.85-3.62,16,16,0,0,1,1.6-4.06A10.86,10.86,0,0,1,283,318c-.28,2.24-.25,8,6.79,10.81-.19-.07-1-3.32-1.35-3.87-1.69-2.58-4.48-4.09-5.18-7.25,3.07-3.44,8.73-6.43,13.4-4.62l.38-1C290.88,309.74,283.49,314.63,280.91,319.18Z"
          transform="translate(-162 -205.78)"/>
    <path class="cls-1"
          d="M301.24,313.34c1.07-6.06,3-17.31,3-18.79a3.61,3.61,0,0,0-1-2.53,7.28,7.28,0,1,0-5.35,0,3.61,3.61,0,0,0-1,2.53c0,1.48,1.94,12.73,3,18.79-1.86,1.83-6.9,7.39-6.9,14,0,8.07,7.58,14.6,7.58,14.6s7.57-6.53,7.57-14.6C308.14,320.73,303.1,315.17,301.24,313.34Zm-.68,24c-2-2.4-4.42-6.18-4.42-10.06,0-4.06,2.52-7.8,4.43-10,1.89,2.24,4.42,6,4.42,10s-2.54,7.84-4.43,10.08Z"
          transform="translate(-162 -205.78)"/>
    <path class="cls-1"
          d="M334.49,318.36a7,7,0,0,0,3.68,2.46,3.71,3.71,0,0,1-1.91-1.75c-1-2.17,1.29-3.94,1.63-5.95a6,6,0,0,0-1.72-5.64c.81.72-1.79,4.66-2.07,5.35A6.43,6.43,0,0,0,334.49,318.36Z"
          transform="translate(-162 -205.78)"/>
    <path class="cls-1"
          d="M359,320.38c-.83-.81-2.32-.42-3.15.2-1.1.81-1.86,2.6-3,3.61a3.47,3.47,0,0,1-3.65-1.7c-.64-1.34-.38-3,0-4.66a22.74,22.74,0,0,0,.45-8.46,5.86,5.86,0,0,0,3.05.27c4.67-.83,6.51-4.88,3.81-8.92-.92-1.38-2.49-1.84-3.48-3,2.19,2.48,3.08,7.62-1.2,8.43a5.76,5.76,0,0,1-3.66-.87,7.49,7.49,0,0,0,3.46,0,3.42,3.42,0,0,0,2.26-2,3.64,3.64,0,0,0-.17-3.17c-1.29-2.38-4.19-3-6.39-3a19.79,19.79,0,0,0-3.26.24,11.23,11.23,0,0,1-5.25-.13c-1.44-.51-2.79-2.06-2.42-3.46a2.23,2.23,0,0,1,2-1.67c.9,0,1.6.85,2.49,1,.68.11,1.66-.12,1.9-.85a.87.87,0,0,0,.06-.32,1.15,1.15,0,0,0-.75-1c-2.17-1-6.07.06-6.73,2.57a2.64,2.64,0,0,0-.1.74,4.08,4.08,0,0,0,1.38,2.88,34.14,34.14,0,0,0-7-1.44,28.17,28.17,0,0,0-23.46,8.82l.78.76c6.27-6.45,13.85-9.31,22.54-8.5A32.42,32.42,0,0,1,340.69,300a21.67,21.67,0,0,1,1.67,1.51c.42.43.82.88,1.18,1.33a13.82,13.82,0,0,1,2.78,12.29,34.37,34.37,0,0,1-3.22,4c-.37.42-.76.82-1.15,1.21a12.15,12.15,0,0,1-7.18.45,10.46,10.46,0,0,1-2.45-2.29,5.85,5.85,0,0,1-1.37-3.75,19.76,19.76,0,0,1,1.41-5.61,7.53,7.53,0,0,0,.37-2.26,5.79,5.79,0,0,0-1-3.25,7.57,7.57,0,0,0-4.55-2.81,7.72,7.72,0,0,1,1,2.45,3.53,3.53,0,0,1,0,.46c0,1.84-2.17,3.45-2.74,5.13a7.4,7.4,0,0,0-.4,2.42c0,3.75,2.24,6.53,5.17,8.55a12.91,12.91,0,0,0,10.17,2l-.25.26c-1.6,1.7-3.24,3.57-3.84,5.87a7.27,7.27,0,0,0,1.44,6.27,6.61,6.61,0,0,0,2.21,1.64,9.21,9.21,0,0,1,1.13.35,7.27,7.27,0,0,1-2.3-2.25c-2-3.37,2.62-6.2,4.37-8.31a15.1,15.1,0,0,0,2.12-3.45c.62,12.1,11.87,9.28,11.87,9.28-.4-1.8-2.14-3.18-3.68-4s-3.71-.64-5.18-1.78a7.78,7.78,0,0,1-2.06-2.91,15.88,15.88,0,0,1-.56-1.5,26.49,26.49,0,0,0,1.42-5.16,15.67,15.67,0,0,0,.1-8.59,5.74,5.74,0,0,0,1.22,1.14,21.13,21.13,0,0,1-.32,8.85,13.26,13.26,0,0,0-.4,2.94,5.49,5.49,0,0,0,.5,2.43,4.17,4.17,0,0,0,2.27,2,6.2,6.2,0,0,0,2.93.29,8.83,8.83,0,0,0,5.57-2.64,2,2,0,0,0,.45-1.21A1.4,1.4,0,0,0,359,320.38Zm-17.2-28.72c.16.07.31.21.31.35a.17.17,0,0,1,0,.1c-.1.28-.69.43-1.12.37a5,5,0,0,1-1.24-.53l-.63-.32a4.67,4.67,0,0,1,2.67,0ZM330.3,308.5c-.12.39-.26.78-.39,1.16a16,16,0,0,0-1.12,5.11,8.39,8.39,0,0,0,.06,1,7.92,7.92,0,0,1-1.58-4.51,5.63,5.63,0,0,1,.27-1.73,7.33,7.33,0,0,1,1-1.47,10,10,0,0,0,1.67-2.89,3.53,3.53,0,0,1,.4,1.68A5.18,5.18,0,0,1,330.3,308.5Zm14.89-5.7a15.37,15.37,0,0,1-1.51-1.51,11.27,11.27,0,0,0-2-1.84h0l-.38-.33-.08-.05s-.25-.14-.61-.31a19.31,19.31,0,0,0,3.56-.23,20,20,0,0,1,3.09-.24c1.92,0,4.42.52,5.48,2.44a2.62,2.62,0,0,1,.11,2.24,2.31,2.31,0,0,1-1.55,1.34A8,8,0,0,1,345.19,302.8Zm13,19.17a7,7,0,0,1-3.59,1.93c.21-.28.42-.58.62-.87a6.81,6.81,0,0,1,1.3-1.58c.53-.39,1.43-.61,1.76-.29a.37.37,0,0,1,.13.28.91.91,0,0,1-.26.56Z"
          transform="translate(-162 -205.78)"/>
    <path class="cls-1"
          d="M262.89,319.36a6.87,6.87,0,0,0,4-2,6.41,6.41,0,0,0,1.07-5.44c-.19-.72-2.28-5-1.39-5.57a6,6,0,0,0-2.4,5.39c.08,2,2.13,4.08.88,6.11A3.7,3.7,0,0,1,262.89,319.36Z"
          transform="translate(-162 -205.78)"/>
    <path class="cls-1"
          d="M274.5,295.56a34.27,34.27,0,0,0-7.15.55,4,4,0,0,0,1.72-2.68,2.36,2.36,0,0,0,0-.75c-.34-2.57-4.09-4.06-6.36-3.38a1.15,1.15,0,0,0-.87.9.86.86,0,0,0,0,.32c.15.75,1.1,1.1,1.79,1.08.89,0,1.69-.78,2.59-.68a2.23,2.23,0,0,1,1.76,1.9c.19,1.44-1.34,2.81-2.84,3.14a11.27,11.27,0,0,1-5.22-.52,20.52,20.52,0,0,0-3.21-.65c-2.19-.21-5.13,0-6.71,2.19a3.69,3.69,0,0,0-.56,3.14,3.37,3.37,0,0,0,2,2.23,7.28,7.28,0,0,0,3.43.38,5.59,5.59,0,0,1-3.73.4c-4.14-1.33-2.61-6.32-.14-8.5-1.14,1-2.75,1.26-3.83,2.51-3.18,3.67-1.86,7.92,2.67,9.32a5.89,5.89,0,0,0,3.06.12,22.44,22.44,0,0,0-.59,8.44c.16,1.67.2,3.38-.6,4.63a3.47,3.47,0,0,1-3.82,1.24c-1-1.15-1.54-3-2.52-4-.76-.72-2.18-1.29-3.11-.59a1.45,1.45,0,0,0-.59,1,2,2,0,0,0,.31,1.25,8.64,8.64,0,0,0,5.19,3.31,6.34,6.34,0,0,0,3,.08,4.26,4.26,0,0,0,2.5-1.75,5.58,5.58,0,0,0,.8-2.34,13.68,13.68,0,0,0,0-3,21.39,21.39,0,0,1,.78-8.82,5.5,5.5,0,0,0,1.35-1,15.7,15.7,0,0,0-1,8.54,25.68,25.68,0,0,0,.77,5.3,9.53,9.53,0,0,1-.75,1.41,7.42,7.42,0,0,1-2.4,2.64c-1.6,1-3.63.47-5.36,1.13s-3.53,1.78-4.14,3.51c0,0,10.81,4.2,12.92-7.73a15.15,15.15,0,0,0,1.67,3.69c1.48,2.31,5.69,5.69,3.31,8.78a7,7,0,0,1-2.56,2c.32-.14.82-.1,1.17-.21a6.71,6.71,0,0,0,2.4-1.35,7.28,7.28,0,0,0,2.2-6c-.31-2.36-1.71-4.42-3.08-6.3l-.22-.29a12.91,12.91,0,0,0,10.34-.76c3.17-1.65,5.73-4.12,6.19-7.84a7.53,7.53,0,0,0-.09-2.46c-.36-1.74-2.31-3.6-2.09-5.43a2.42,2.42,0,0,1,.1-.45,7.86,7.86,0,0,1,1.3-2.31,7.65,7.65,0,0,0-4.87,2.22,5.71,5.71,0,0,0-1.37,3.11,7.33,7.33,0,0,0,.09,2.29,19.55,19.55,0,0,1,.7,5.74A5.79,5.79,0,0,1,269,317.8a10.51,10.51,0,0,1-2.72,2,12.21,12.21,0,0,1-7.07-1.33c-.34-.44-.68-.89-1-1.35a35.9,35.9,0,0,1-2.7-4.39,13.82,13.82,0,0,1,4.28-11.85q.65-.61,1.35-1.17a19.68,19.68,0,0,1,1.84-1.3,32.56,32.56,0,0,1,11.54-1.74c8.72.28,15.89,4.06,21.32,11.23l.86-.65A28.16,28.16,0,0,0,274.5,295.56Zm-9.58-5a5.36,5.36,0,0,1-1.3.37c-.43,0-1-.21-1.06-.51v-.09c0-.15.19-.26.36-.31a4.45,4.45,0,0,1,2.67.3,3.22,3.22,0,0,0-.67.2Zm-22,27.5a.88.88,0,0,1-.15-.55.35.35,0,0,1,.16-.26c.36-.28,1.23.05,1.71.51a7.09,7.09,0,0,1,1.1,1.72l.51,1a6.86,6.86,0,0,1-3.33-2.48Zm29.23-11.53a3.64,3.64,0,0,1,.61-1.62,10,10,0,0,0,1.3,3.07,7.92,7.92,0,0,1,.76,1.58,5.15,5.15,0,0,1,.06,1.75,7.86,7.86,0,0,1-2.13,4.28,8.43,8.43,0,0,0,.2-1,16.06,16.06,0,0,0-.49-5.21l-.24-1.19a5.7,5.7,0,0,1-.07-1.7Zm-9.62-9.1h-.09l-.42.28h0a11,11,0,0,0-2.18,1.59,13.39,13.39,0,0,1-1.69,1.31,8,8,0,0,1-6.28.74,2.35,2.35,0,0,1-1.37-1.53,2.61,2.61,0,0,1,.39-2.2c1.28-1.78,3.83-1.93,5.74-1.75a19.25,19.25,0,0,1,3,.62,19.84,19.84,0,0,0,3.5.67Z"
          transform="translate(-162 -205.78)"/>
    <text class="cls-2" transform="translate(22 69.22)">
        <tspan class="cls-3">P</tspan>
        <tspan class="cls-4" x="10.84" y="0">r</tspan>
        <tspan x="17.49" y="0">enditi cu</tspan>
        <tspan class="cls-5" x="93.72" y="0">r</tspan>
        <tspan x="100.48" y="0">a del tuo</tspan>
        <tspan class="cls-6" x="181.33" y="0">c</tspan>
        <tspan x="190.61" y="0">o</tspan>
        <tspan class="cls-7" x="202.14" y="0">r</tspan>
        <tspan x="209.09" y="0">po</tspan>
    </text>
    <text class="cls-8" transform="translate(18 50.22)">
        <tspan class="cls-9">V</tspan>
        <tspan x="32.52" y="0">illa</tspan>
        <tspan class="cls-10" x="116.52" y="0">S</tspan>
        <tspan x="146.28" y="0">alus</tspan>
    </text>
</svg>
